<?xml version="1.0" encoding="UTF-8"?>
<!DOCTYPE svg PUBLIC "-//W3C//DTD SVG 1.1//EN" "http://www.w3.org/Graphics/SVG/1.1/DTD/svg11.dtd">
<svg xmlns="http://www.w3.org/2000/svg" version="1.1" width="50px" height="50px" style="shape-rendering:geometricPrecision; text-rendering:geometricPrecision; image-rendering:optimizeQuality; fill-rule:evenodd; clip-rule:evenodd" xmlns:xlink="http://www.w3.org/1999/xlink">
<g><path style="opacity:1" fill="#000000" d="M 17.5,2.5 C 40.4133,1.31875 49.5799,11.9854 45,34.5C 38.7675,45.1381 29.6008,48.9715 17.5,46C 9.41391,43.3419 4.41391,37.8419 2.5,29.5C 2.83333,28.8333 3.16667,28.1667 3.5,27.5C 8.25683,29.0767 11.4235,32.0767 13,36.5C 13.2492,35.376 13.7492,34.376 14.5,33.5C 16.0709,34.3094 17.7376,34.6427 19.5,34.5C 19.5479,31.7081 18.2146,29.8747 15.5,29C 21.3569,27.187 23.8569,29.3536 23,35.5C 23.3095,34.2341 23.8095,33.0674 24.5,32C 27.608,29.8944 30.9413,28.2277 34.5,27C 26.6667,27.8333 23.1667,24.3333 24,16.5C 22.7723,20.0587 21.1056,23.392 19,26.5C 17.2151,27.2401 15.3817,27.9067 13.5,28.5C 10.1667,26.8333 6.83333,25.1667 3.5,23.5C 2.33524,20.4648 2.50191,17.4648 4,14.5C 7.2246,8.98558 11.7246,4.98558 17.5,2.5 Z M 28.5,16.5 C 34.1581,15.6794 35.8248,17.846 33.5,23C 27.741,24.1387 26.0744,21.972 28.5,16.5 Z"/></g>
</svg>
