<?xml version="1.0" encoding="UTF-8"?>
<!DOCTYPE svg PUBLIC "-//W3C//DTD SVG 1.1//EN" "http://www.w3.org/Graphics/SVG/1.1/DTD/svg11.dtd">
<svg xmlns="http://www.w3.org/2000/svg" version="1.1" width="50px" height="50px" style="shape-rendering:geometricPrecision; text-rendering:geometricPrecision; image-rendering:optimizeQuality; fill-rule:evenodd; clip-rule:evenodd" xmlns:xlink="http://www.w3.org/1999/xlink">
<g><path style="opacity:1" fill="#000000" d="M 8.5,1.5 C 15.8409,1.33368 23.1742,1.50034 30.5,2C 34,5.5 37.5,9 41,12.5C 41.8204,24.0762 41.6537,35.5762 40.5,47C 29.59,47.8196 18.7567,47.6529 8,46.5C 7.18424,31.4255 7.35091,16.4255 8.5,1.5 Z M 29.5,5.5 C 32.2971,7.79503 34.9638,10.295 37.5,13C 31.1653,14.5001 28.4987,12.0001 29.5,5.5 Z M 16.5,23.5 C 21.8746,23.1718 27.2079,23.5052 32.5,24.5C 29.8333,24.8333 27.1667,25.1667 24.5,25.5C 21.4098,25.4783 18.7432,24.8117 16.5,23.5 Z M 16.5,27.5 C 21.8746,27.1718 27.2079,27.5052 32.5,28.5C 29.8333,28.8333 27.1667,29.1667 24.5,29.5C 21.4098,29.4783 18.7432,28.8117 16.5,27.5 Z M 16.5,31.5 C 21.8746,31.1718 27.2079,31.5052 32.5,32.5C 29.8333,32.8333 27.1667,33.1667 24.5,33.5C 21.4098,33.4783 18.7432,32.8117 16.5,31.5 Z M 16.5,35.5 C 19.5719,35.1826 22.5719,35.5159 25.5,36.5C 24,36.8333 22.5,37.1667 21,37.5C 19.0145,37.4313 17.5145,36.7647 16.5,35.5 Z"/></g>
</svg>
