<?xml version="1.0" encoding="UTF-8"?>
<!DOCTYPE svg PUBLIC "-//W3C//DTD SVG 1.1//EN" "http://www.w3.org/Graphics/SVG/1.1/DTD/svg11.dtd">
<svg xmlns="http://www.w3.org/2000/svg" version="1.1" width="50px" height="50px" style="shape-rendering:geometricPrecision; text-rendering:geometricPrecision; image-rendering:optimizeQuality; fill-rule:evenodd; clip-rule:evenodd" xmlns:xlink="http://www.w3.org/1999/xlink">
<g><path style="opacity:1" fill="#0a0f0d" d="M 49.5,12.5 C 49.5,21.8333 49.5,31.1667 49.5,40.5C 45.6496,40.8221 42.483,39.4887 40,36.5C 40.0527,39.6127 38.886,42.1127 36.5,44C 25.495,44.2222 14.495,43.8889 3.5,43C 3,42.5 2.5,42 2,41.5C 1.33333,32.8333 1.33333,24.1667 2,15.5C 5.16667,12.3333 8.33333,9.16667 11.5,6C 20.5,5.33333 29.5,5.33333 38.5,6C 40.1553,8.50744 40.9886,11.3408 41,14.5C 43.4315,10.8138 46.2649,10.1471 49.5,12.5 Z"/></g>
<g><path style="opacity:1" fill="#173b7c" d="M 2.5,32.5 C 5.83333,32.5 9.16667,32.5 12.5,32.5C 12.5,35.5 12.5,38.5 12.5,41.5C 9.48162,41.6646 6.48162,41.498 3.5,41C 2.55621,38.2809 2.22288,35.4475 2.5,32.5 Z"/></g>
<g><path style="opacity:1" fill="#30ab73" d="M 28.5,25.5 C 29.9923,28.3231 32.3257,29.9898 35.5,30.5C 37.6968,34.115 38.0302,37.9483 36.5,42C 29.144,42.8313 21.8107,42.6646 14.5,41.5C 13.5934,38.5788 13.2601,35.5788 13.5,32.5C 18.1667,32.5 22.8333,32.5 27.5,32.5C 27.1984,29.9407 27.5318,27.6074 28.5,25.5 Z"/></g>
<g><path style="opacity:1" fill="#216d49" d="M 36.5,18.5 C 38.11,21.2033 39.11,24.2033 39.5,27.5C 39.5,29.1667 39.5,30.8333 39.5,32.5C 38.71,31.3915 38.21,30.0581 38,28.5C 37.5831,29.756 36.7498,30.4226 35.5,30.5C 32.3257,29.9898 29.9923,28.3231 28.5,25.5C 28.5569,24.391 28.8902,23.391 29.5,22.5C 31.3356,20.412 33.6689,19.0787 36.5,18.5 Z"/></g>
<g><path style="opacity:1" fill="#cedbdb" d="M 13.5,17.5 C 17.8333,17.5 22.1667,17.5 26.5,17.5C 26.5,22.1667 26.5,26.8333 26.5,31.5C 22.1667,31.5 17.8333,31.5 13.5,31.5C 13.5,26.8333 13.5,22.1667 13.5,17.5 Z"/></g>
<g><path style="opacity:1" fill="#4670a6" d="M 2.5,17.5 C 5.83333,17.5 9.16667,17.5 12.5,17.5C 12.5,22.1667 12.5,26.8333 12.5,31.5C 9.16667,31.5 5.83333,31.5 2.5,31.5C 2.5,26.8333 2.5,22.1667 2.5,17.5 Z"/></g>
<g><path style="opacity:1" fill="#942619" d="M 12.5,7.5 C 12.1936,10.3854 12.5269,13.0521 13.5,15.5C 13.5,15.8333 13.5,16.1667 13.5,16.5C 10.4281,16.8174 7.42814,16.4841 4.5,15.5C 6.8544,12.4789 9.52107,9.81225 12.5,7.5 Z"/></g>
<g><path style="opacity:1" fill="#30a771" d="M 39.5,32.5 C 39.5,30.8333 39.5,29.1667 39.5,27.5C 37.9273,21.005 39.9273,16.1717 45.5,13C 46.4491,12.3828 47.2825,12.5494 48,13.5C 48.4997,21.8267 48.6664,30.16 48.5,38.5C 44.4698,38.1507 41.4698,36.1507 39.5,32.5 Z"/></g>
<g><path style="opacity:1" fill="#7f5c05" d="M 21.5,7.5 C 18.8333,7.5 16.1667,7.5 13.5,7.5C 13.5,10.1667 13.5,12.8333 13.5,15.5C 12.5269,13.0521 12.1936,10.3854 12.5,7.5C 15.5,6.16667 18.5,6.16667 21.5,7.5 Z"/></g>
<g><path style="opacity:1" fill="#f2b50b" d="M 36.5,18.5 C 33.6689,19.0787 31.3356,20.412 29.5,22.5C 27.6921,21.0821 27.0254,19.0821 27.5,16.5C 22.8333,16.5 18.1667,16.5 13.5,16.5C 13.5,16.1667 13.5,15.8333 13.5,15.5C 13.5,12.8333 13.5,10.1667 13.5,7.5C 16.1667,7.5 18.8333,7.5 21.5,7.5C 26.9141,7.18227 32.2475,7.18227 37.5,7.5C 40.3929,11.5149 40.0596,15.1816 36.5,18.5 Z"/></g>
</svg>
