<?xml version="1.0" encoding="UTF-8"?>
<!DOCTYPE svg PUBLIC "-//W3C//DTD SVG 1.1//EN" "http://www.w3.org/Graphics/SVG/1.1/DTD/svg11.dtd">
<svg xmlns="http://www.w3.org/2000/svg" version="1.1" width="50px" height="50px" style="shape-rendering:geometricPrecision; text-rendering:geometricPrecision; image-rendering:optimizeQuality; fill-rule:evenodd; clip-rule:evenodd" xmlns:xlink="http://www.w3.org/1999/xlink">
<g><path style="opacity:1" fill="#000000" d="M 33.5,1.5 C 35.1992,1.33982 36.8659,1.50649 38.5,2C 42.309,5.12893 45.309,8.7956 47.5,13C 44.7409,18.2611 40.7409,22.4278 35.5,25.5C 30.295,22.4623 26.295,18.2956 23.5,13C 26.6561,9.0107 29.9894,5.17737 33.5,1.5 Z M 35.5,4.5 C 38.6306,7.12879 41.6306,9.96213 44.5,13C 41.6511,16.0162 38.6511,18.8496 35.5,21.5C 32.5,19.1667 29.8333,16.5 27.5,13.5C 30.189,10.4802 32.8556,7.48016 35.5,4.5 Z"/></g>
<g><path style="opacity:1" fill="#000000" d="M 3.5,4.5 C 9.5,4.5 15.5,4.5 21.5,4.5C 21.5,10.5 21.5,16.5 21.5,22.5C 15.5,22.5 9.5,22.5 3.5,22.5C 3.5,16.5 3.5,10.5 3.5,4.5 Z M 6.5,6.5 C 10.7675,6.20299 14.9341,6.53632 19,7.5C 19.7961,11.7548 19.6295,15.9215 18.5,20C 14.2452,20.7961 10.0785,20.6295 6,19.5C 5.23158,15.0804 5.39825,10.7471 6.5,6.5 Z"/></g>
<g><path style="opacity:1" fill="#000000" d="M 3.5,27.5 C 9.5,27.5 15.5,27.5 21.5,27.5C 21.5,33.5 21.5,39.5 21.5,45.5C 15.5,45.5 9.5,45.5 3.5,45.5C 3.5,39.5 3.5,33.5 3.5,27.5 Z M 6.5,29.5 C 10.7675,29.203 14.9341,29.5363 19,30.5C 19.7961,34.7548 19.6295,38.9215 18.5,43C 14.2452,43.7961 10.0785,43.6295 6,42.5C 5.23158,38.0804 5.39825,33.7471 6.5,29.5 Z"/></g>
<g><path style="opacity:1" fill="#000000" d="M 26.5,27.5 C 32.5,27.5 38.5,27.5 44.5,27.5C 44.5,33.5 44.5,39.5 44.5,45.5C 38.5,45.5 32.5,45.5 26.5,45.5C 26.5,39.5 26.5,33.5 26.5,27.5 Z M 29.5,29.5 C 33.7675,29.203 37.9341,29.5363 42,30.5C 42.7961,34.7548 42.6295,38.9215 41.5,43C 37.2452,43.7961 33.0785,43.6295 29,42.5C 28.2316,38.0804 28.3982,33.7471 29.5,29.5 Z"/></g>
</svg>
